<?xml version="1.0" encoding="utf-8"?>
<!-- Generator: Adobe Illustrator 16.2.0, SVG Export Plug-In . SVG Version: 6.00 Build 0)  -->
<!DOCTYPE svg PUBLIC "-//W3C//DTD SVG 1.1//EN" "http://www.w3.org/Graphics/SVG/1.1/DTD/svg11.dtd">
<svg version="1.1" id="Layer_1" xmlns="http://www.w3.org/2000/svg" xmlns:xlink="http://www.w3.org/1999/xlink" x="0px" y="0px"
	 width="612px" height="792px" viewBox="0 0 612 792" enable-background="new 0 0 612 792" xml:space="preserve">
<path d="M502.642,391.137c0.669,0.68,1.029,1.579,1.029,2.549c0,0.999-0.38,1.898-1.069,2.568c-0.71,0.689-1.629,1.059-2.568,1.059
	c-0.97,0-1.88-0.389-2.579-1.099c-0.68-0.69-1.039-1.589-1.039-2.528c0-0.65,0.17-1.279,0.529-1.889
	c0.649-1.1,1.779-1.75,3.089-1.75C501.032,390.047,501.941,390.427,502.642,391.137z M497.934,391.506
	c-0.59,0.59-0.919,1.369-0.919,2.17c0,0.799,0.3,1.549,0.869,2.118c0.58,0.59,1.35,0.919,2.149,0.919
	c0.789,0,1.549-0.319,2.148-0.889c0.569-0.55,0.89-1.31,0.89-2.089c0-0.87-0.29-1.599-0.859-2.179c-0.59-0.6-1.33-0.91-2.169-0.91
	C499.224,390.646,498.504,390.937,497.934,391.506z M500.112,391.596c1.149,0,1.72,0.391,1.72,1.16c0,0.529-0.33,0.93-0.88,1.069
	l0.899,1.799h-1.089l-0.77-1.649h-0.48v1.649h-0.979v-4.028H500.112z M499.513,393.385h0.48c0.56,0,0.829-0.17,0.829-0.569
	c0-0.419-0.29-0.6-0.88-0.6h-0.43V393.385z"/>
<path fill-rule="evenodd" clip-rule="evenodd" d="M108.947,434.8c2.159,8.944,11.103,13.186,19.661,13.186
	c6.092,0,11.721-1.928,16.115-6.245c4.704-4.704,5.166-9.639,5.166-15.962v-26.909h5.32v-8.79h-13.956v6.015
	c-3.083-4.782-8.173-6.708-13.724-6.708c-11.412,0-20.896,9.869-20.896,21.203c0,11.489,9.099,21.28,20.819,21.28
	c5.551,0,10.254-2.08,13.185-6.861v1.541c0,3.856-0.232,6.478-2.853,9.563c-2.081,2.389-5.475,3.778-8.714,3.778
	c-3.623,0-7.633-1.62-9.252-5.09H108.947z M116.271,410.512c0-6.862,5.629-12.491,12.491-12.491c6.863,0,12.569,5.553,12.569,12.414
	c0,6.94-5.398,12.724-12.491,12.724C121.823,423.158,116.271,417.528,116.271,410.512"/>
<path fill-rule="evenodd" clip-rule="evenodd" d="M168.387,422.464h5.32v8.789h-20.433v-8.789h5.706v-37.475h-5.32v-8.79h14.727
	V422.464z"/>
<path d="M194.667,388.845c-11.951,0-21.744,9.639-21.744,21.667c0,11.874,9.484,21.821,21.513,21.821
	c12.105,0,21.667-9.869,21.667-21.898C216.104,398.715,206.542,388.845,194.667,388.845z M194.437,423.08
	c-7.017,0-12.26-5.86-12.26-12.646c0-6.861,5.705-12.335,12.491-12.335c6.862,0,12.183,5.857,12.183,12.566
	C206.851,417.528,201.298,423.08,194.437,423.08z"/>
<path fill-rule="evenodd" clip-rule="evenodd" d="M229.659,376.2h-14.727v8.791h5.321v37.474h-5.321v8.789h14.727v-6.168
	c3.161,4.472,8.324,6.784,13.796,6.784c5.395,0,10.944-2.697,14.566-6.707c3.623-3.934,5.549-9.176,5.549-14.495
	c0-11.644-9.557-21.206-21.194-21.206c-5.241,0-9.786,2.237-12.717,6.555V376.2z M241.761,398.021
	c6.858,0,12.483,5.629,12.483,12.491c0,6.708-5.317,12.646-12.253,12.646c-7.09,0-12.717-5.552-12.717-12.723
	C229.274,403.573,234.901,398.021,241.761,398.021"/>
<path fill-rule="evenodd" clip-rule="evenodd" d="M299.801,431.253h14.729v-8.789h-5.167v-23.595h5.167v-8.79h-14.729v5.86
	c-2.852-4.474-7.479-6.94-12.799-6.94c-12.028,0-21.59,9.946-21.59,21.898c0,11.643,9.329,21.436,21.127,21.436
	c5.398,0,10.256-2.082,13.262-6.632V431.253z M287.387,423.157c-6.631,0-12.26-5.552-12.26-12.26c0-6.94,5.397-12.723,12.414-12.723
	c6.785,0,12.415,5.475,12.415,12.26C299.956,417.451,294.481,423.157,287.387,423.157"/>
<path fill-rule="evenodd" clip-rule="evenodd" d="M331.792,422.464h5.32v8.789H316.68v-8.789h5.705v-37.475h-5.319v-8.79h14.727
	V422.464z"/>
<path fill-rule="evenodd" clip-rule="evenodd" d="M346.584,437.498h-5.244v8.792h20.047v-8.792h-5.32v-12.027
	c3.315,4.318,8.559,6.398,13.957,6.398c11.411,0,20.51-9.791,20.51-21.049c0-11.643-9.33-21.204-20.973-21.204
	c-5.553,0-10.487,2.236-13.494,6.94v-6.478H341.34v8.79h5.244V437.498z M368.403,423.157c-6.861,0-12.413-5.552-12.413-12.414
	c0-7.094,5.705-12.49,12.645-12.49c6.863,0,12.184,5.858,12.184,12.567C380.818,417.605,375.188,423.157,368.403,423.157"/>
<path fill-rule="evenodd" clip-rule="evenodd" d="M413.348,432.333c12.105,0,21.668-9.869,21.668-21.898
	c0-11.72-9.563-21.59-21.436-21.59c-11.951,0-21.744,9.639-21.744,21.667C391.836,422.386,401.319,432.333,413.348,432.333
	 M413.348,423.08c-7.016,0-12.259-5.86-12.259-12.646c0-6.861,5.704-12.335,12.491-12.335c6.861,0,12.182,5.857,12.182,12.566
	C425.762,417.528,420.211,423.08,413.348,423.08"/>
<path fill-rule="evenodd" clip-rule="evenodd" d="M446.412,419.302c0.31,3.701,2.777,6.169,6.631,6.169
	c2.854,0,5.63-2.005,5.63-5.09c0-4.086-3.855-4.78-7.017-5.628c-7.171-1.852-15.036-4.087-15.036-13.108
	c0-7.863,6.631-12.413,13.956-12.413c3.701,0,7.018,0.771,9.33,3.7v-2.853h6.939v11.18h-9.099c-0.153-2.93-2.39-4.856-5.32-4.856
	c-2.544,0-5.243,1.464-5.243,4.317c0,3.855,3.779,4.703,6.785,5.396c7.402,1.696,15.345,4.01,15.345,13.262
	c0,8.328-7.017,12.955-14.728,12.955c-4.164,0-7.941-1.312-10.641-4.473v3.393h-7.171v-11.951H446.412z"/>
<path fill-rule="evenodd" clip-rule="evenodd" d="M486.354,422.464h7.479v8.789h-16.886v-32.384h-6.477v-8.79h6.477v-13.88h9.407
	v13.88h7.017v8.79h-7.017V422.464z"/>
<path d="M107.634,362.1c31.138-11.057,69.942-17.575,112.087-17.581c42.129,0.006,80.934,6.524,112.071,17.581v9.73
	c-30.397-11.297-69.482-18.16-112.071-18.153c-42.604-0.007-81.69,6.856-112.087,18.152V362.1"/>
<g>
</g>
<g>
</g>
<g>
</g>
<g>
</g>
<g>
</g>
<g>
</g>
</svg>
