<?xml version="1.0" encoding="utf-8"?>
<!-- Generator: Adobe Illustrator 16.2.0, SVG Export Plug-In . SVG Version: 6.00 Build 0)  -->
<!DOCTYPE svg PUBLIC "-//W3C//DTD SVG 1.1//EN" "http://www.w3.org/Graphics/SVG/1.1/DTD/svg11.dtd">
<svg version="1.1" id="Layer_1" xmlns="http://www.w3.org/2000/svg" xmlns:xlink="http://www.w3.org/1999/xlink" x="0px" y="0px"
	 width="612px" height="792px" viewBox="0 0 612 792" enable-background="new 0 0 612 792" xml:space="preserve">
<path d="M257.096,370.382c13.514-11.057,30.355-17.575,48.647-17.581c18.285,0.006,35.126,6.524,48.64,17.581v9.729
	c-13.193-11.297-30.156-18.159-48.64-18.151c-18.491-0.008-35.454,6.854-48.647,18.151V370.382"/>
<path stroke="#FFFFFF" stroke-width="0.5" d="M256.35,426.525c2.159,8.944,11.103,13.186,19.661,13.186
	c6.092,0,11.721-1.928,16.115-6.245c4.704-4.704,5.166-9.639,5.166-15.962v-26.909h5.32v-8.79h-13.956v6.015
	c-3.083-4.782-8.173-6.708-13.724-6.708c-11.412,0-20.896,9.869-20.896,21.203c0,11.489,9.099,21.28,20.819,21.28
	c5.551,0,10.254-2.08,13.185-6.861v1.541c0,3.856-0.232,6.478-2.853,9.563c-2.081,2.389-5.475,3.778-8.714,3.778
	c-3.623,0-7.633-1.62-9.252-5.09H256.35z M263.674,402.237c0-6.862,5.629-12.491,12.491-12.491c6.863,0,12.569,5.553,12.569,12.414
	c0,6.94-5.398,12.724-12.491,12.724C269.226,414.884,263.674,409.254,263.674,402.237z"/>
<path fill-rule="evenodd" clip-rule="evenodd" d="M312.434,428.956h-5.244v8.792h20.047v-8.792h-5.32v-12.027
	c3.314,4.318,8.559,6.398,13.957,6.398c11.41,0,20.51-9.791,20.51-21.049c0-11.643-9.33-21.204-20.973-21.204
	c-5.553,0-10.488,2.236-13.494,6.94v-6.478h-14.727v8.79h5.244V428.956z M334.252,414.615c-6.861,0-12.412-5.552-12.412-12.414
	c0-7.094,5.705-12.49,12.645-12.49c6.863,0,12.184,5.858,12.184,12.567C346.668,409.063,341.037,414.615,334.252,414.615"/>
<g>
</g>
<g>
</g>
<g>
</g>
<g>
</g>
<g>
</g>
<g>
</g>
</svg>
